# Blender v2.79 (sub 0) OBJ File: 'asteroid5.blend'
# www.blender.org
mtllib asteroid5.mtl
o Icosphere
v 0.000000 -1.492630 0.036579
v 0.880491 -0.733971 0.885946
v -0.351253 -0.722531 1.410894
v -1.108148 -0.722525 0.036579
v -0.351253 -0.722531 -1.337735
v 0.883746 -0.720405 -0.777156
v 0.351253 0.735801 1.375450
v -0.815668 0.722530 0.851375
v -0.882126 0.722530 -0.812787
v 0.351253 0.722531 -1.309219
v 0.742011 0.722525 0.036579
v -0.000000 1.430171 0.036579
v -0.204972 -1.335551 0.838553
v 0.536633 -1.315315 0.532223
v 0.375807 -0.843262 1.299565
v 1.047247 -0.843260 0.036579
v 0.536633 -1.263559 -0.459064
v -0.624226 -1.333941 0.036579
v -0.829993 -0.843260 0.838556
v -0.204972 -1.265756 -0.765394
v -0.868292 -0.843260 -0.765397
v 0.331663 -0.843262 -1.261045
v 0.882348 -0.000000 0.532225
v 0.942010 -0.000000 -0.459066
v -0.000000 0.000000 1.613331
v 0.655188 -0.000000 1.334210
v -1.043626 0.000000 0.532225
v -0.730434 0.000000 1.264805
v -0.741612 0.000000 -1.207512
v -1.060779 0.000000 -0.459066
v 0.657303 -0.012900 -1.227497
v 0.000000 0.000000 -1.533643
v 0.690554 0.848233 0.797336
v -0.331663 0.853337 1.334204
v -0.943441 0.843260 0.036579
v -0.331663 0.843262 -1.204119
v 0.709966 0.847662 -0.765397
v 0.203252 1.339688 0.807962
v 0.624284 1.321053 0.036579
v -0.536633 1.292074 0.532223
v -0.503056 1.351571 -0.459064
v 0.204972 1.348435 -0.765394
v -0.100407 -1.492206 0.429432
v 0.750571 -1.051043 0.733438
v -0.017951 -0.799338 1.401155
v 0.987425 -0.801243 0.490642
v 0.751113 -1.044068 -0.654341
v -0.318415 -1.502268 0.036579
v -1.007017 -0.799333 0.429434
v -0.100407 -1.433607 -0.356274
v -0.613117 -0.799337 -1.090972
v 0.650707 -0.798983 -1.047198
v 0.941545 -0.388165 0.733440
v 0.842193 0.386256 -0.206217
v -0.187777 -0.386259 1.552455
v 0.527984 0.386259 1.401025
v -1.068957 -0.386256 0.279376
v -0.820919 0.386259 1.108969
v -0.551062 -0.386259 -1.324850
v -1.041155 0.386258 -0.660281
v 0.815789 -0.388054 -1.041609
v 0.187777 0.386259 -1.473455
v 0.583346 0.815367 1.148178
v -0.640835 0.799337 1.120534
v -0.981496 0.799336 -0.417483
v 0.025309 0.799338 -1.319529
v 0.732608 0.803735 -0.356275
v 0.286464 1.132395 1.149948
v 0.324930 1.386221 0.036579
v -0.730414 1.045222 0.727676
v -0.742645 1.054630 -0.660279
v 0.288184 1.054631 -1.086218
v -0.288184 -1.050268 1.164129
v 0.262874 -1.456854 0.279375
v 0.657522 -0.801244 1.120522
v 0.987968 -0.798982 -0.411545
v 0.262874 -1.387174 -0.206216
v -0.926084 -1.049547 0.036579
v -0.607938 -0.799337 1.164131
v -0.288184 -1.041742 -1.090970
v -1.022805 -0.799333 -0.356275
v -0.025309 -0.799338 -1.333769
v 0.771325 0.386256 0.279376
v 0.947605 -0.385904 -0.654342
v 0.187777 0.386259 1.546548
v 0.814894 -0.388165 1.126298
v -0.954843 0.386258 0.727678
v -0.551062 -0.386259 1.395364
v -0.848653 0.386259 -1.044217
v -1.090271 -0.386256 -0.206217
v 0.528337 0.384109 -1.323428
v -0.187777 -0.386259 -1.478208
v 0.705908 0.799333 0.423199
v 0.025309 0.820471 1.401021
v -0.897172 0.799336 0.484880
v -0.647835 0.799337 -1.043649
v 0.585204 0.799337 -1.086219
v 0.100407 1.365858 0.424969
v 0.731425 1.054419 0.036579
v -0.262874 1.434212 0.279375
v -0.257278 1.448960 -0.206216
v 0.100407 1.397927 -0.356274
v 0.441246 1.373449 -0.382984
v 0.648154 1.165796 -0.382985
v 0.528240 1.148398 -0.781662
v -0.167917 1.381155 -0.642287
v -0.071619 1.143997 -1.031479
v -0.434688 1.143997 -0.879196
v -0.555897 1.340530 0.036579
v -0.808430 1.137084 -0.209814
v -0.803199 1.127676 0.282973
v -0.173513 1.355759 0.710982
v -0.440285 1.141411 0.961842
v -0.071619 1.208618 1.109662
v 0.439527 1.327185 0.447869
v 0.517785 1.174575 0.821262
v 0.646297 1.137677 0.446099
v 0.861660 0.430182 -0.642290
v 0.850613 0.008831 -0.883096
v 0.708203 0.428032 -1.035379
v -0.178853 0.430183 -1.445427
v -0.382646 0.010981 -1.445995
v -0.547522 0.430183 -1.289844
v -1.020174 0.430182 -0.209815
v -1.067900 0.010982 0.036579
v -0.988602 0.430182 0.282974
v -0.547522 0.430183 1.369846
v -0.382646 0.010981 1.517597
v -0.178853 0.430183 1.529162
v 0.690848 0.430182 1.107895
v 0.827879 0.010981 0.961847
v 0.745119 0.430182 0.709213
v 0.372931 -0.013131 -1.449326
v 0.537807 -0.432334 -1.302663
v 0.178853 -0.430183 -1.454915
v -0.985143 -0.010981 -0.879765
v -0.836905 -0.430182 -1.032048
v -1.037915 -0.430182 -0.642290
v -0.904122 -0.010981 0.950279
v -0.977652 -0.430182 0.715448
v -0.813322 -0.430182 1.102563
v 0.372579 -0.010981 1.529165
v 0.186210 -0.430183 1.523389
v 0.544812 -0.430183 1.375641
v 0.909315 -0.010982 0.036579
v 1.011457 -0.430182 0.282974
v 1.016973 -0.430182 -0.209815
v 0.440285 -1.119582 -0.888684
v 0.173513 -1.273896 -0.642287
v 0.071619 -1.116902 -1.040967
v -0.556154 -1.131107 -0.781662
v -0.447742 -1.377980 -0.382984
v -0.777491 -1.138915 -0.382985
v -0.772312 -1.138915 0.456144
v -0.447742 -1.390939 0.456143
v -0.550975 -1.139633 0.854821
v 0.828265 -1.122103 -0.209814
v 0.828265 -1.126817 0.282973
v 0.561493 -1.299090 0.036579
v 0.078976 -1.139634 1.108352
v 0.173513 -1.386072 0.715446
v 0.447642 -1.138503 0.956069
vt 0.504591 0.489474
vt 0.628443 0.400570
vt 0.457284 0.345623
vt 0.177110 0.245342
vt 0.240216 0.137116
vt 0.330198 0.230597
vt 0.351500 0.489474
vt 0.457284 0.633326
vt 0.628443 0.578379
vt 0.240215 0.381855
vt 0.343625 0.253187
vt 0.500654 0.230597
vt 0.424108 0.381855
vt 0.483287 0.253189
vt 0.337690 0.230598
vt 0.393304 0.381856
vt 0.343625 0.253187
vt 0.223710 0.230597
vt 0.252947 0.381855
vt 0.764736 0.254644
vt 0.871956 0.230597
vt 0.871958 0.381855
vt 0.094616 0.381855
vt 0.252947 0.381855
vt 0.573270 0.381856
vt 0.424108 0.381855
vt 0.726359 0.381855
vt 0.665556 0.767859
vt 0.785471 0.790448
vt 0.632380 0.929427
vt 0.201103 0.767858
vt 0.094618 0.790449
vt 0.240216 0.883929
vt 0.789465 0.767858
vt 0.636376 0.790448
vt 0.726359 0.883929
vt 0.665556 0.767859
vt 0.508527 0.790449
vt 0.632380 0.883929
vt 0.483287 0.767856
vt 0.628884 0.790447
vt 0.483287 0.883927
vt 0.810771 0.489474
vt 0.704987 0.633326
vt 0.657681 0.489474
vt 0.789203 0.633327
vt 0.774481 0.813038
vt 0.876589 0.790448
vt 0.774480 0.906519
vt 0.599203 0.777178
vt 0.428045 0.722231
vt 0.551897 0.633326
vt 0.475351 0.866084
vt 0.351498 0.813039
vt 0.217333 0.790449
vt 0.304192 0.906519
vt 0.286512 0.667284
vt 0.256887 0.489474
vt 0.380739 0.578379
vt 0.133034 0.578379
vt 0.483287 0.813038
vt 0.330198 0.790448
vt 0.393304 0.906519
vt 0.256887 0.311665
vt 0.428045 0.256718
vt 0.380739 0.400570
vt 0.304192 0.167812
vt 0.351498 0.813039
vt 0.508527 0.790449
vt 0.475351 0.947970
vt 0.599203 0.220135
vt 0.704987 0.345623
vt 0.551897 0.345623
vt 0.743192 0.217446
vt 0.218057 0.813038
vt 0.337690 0.790447
vt 0.337690 0.906518
vt 0.663253 0.510523
vt 0.718867 0.661780
vt 0.573270 0.639189
vt 0.808852 0.510523
vt 0.931163 0.501677
vt 0.966574 0.639191
vt 0.864466 0.661780
vt 0.504591 0.510523
vt 0.428044 0.661781
vt 0.585073 0.639191
vt 0.333430 0.510523
vt 0.162270 0.510523
vt 0.122719 0.639191
vt 0.256884 0.661781
vt 0.663253 0.510523
vt 0.573270 0.661780
vt 0.726359 0.639191
vt 0.483287 0.510523
vt 0.303321 0.510523
vt 0.240215 0.639191
vt 0.393304 0.661780
vt 0.162270 0.510523
vt 0.256884 0.661781
vt 0.122719 0.639191
vt 0.333430 0.510523
vt 0.504591 0.510523
vt 0.585073 0.639191
vt 0.428044 0.661781
vt 0.012123 0.510523
vt 0.102108 0.661780
vt 0.000000 0.639191
vt 0.157722 0.510523
vt 0.303321 0.510523
vt 0.393304 0.639189
vt 0.247707 0.661780
vt 0.795483 0.501677
vt 0.675751 0.510523
vt 0.756234 0.639191
vt 0.752297 0.359265
vt 0.657683 0.208007
vt 0.500654 0.230597
vt 0.581137 0.359265
vt 0.917293 0.510523
vt 0.808852 0.510523
vt 0.871958 0.639191
vt 0.864466 0.359265
vt 0.774481 0.208007
vt 0.628884 0.230598
vt 0.718867 0.359265
vt 0.157722 0.510523
vt 0.247707 0.359265
vt 0.131212 0.208007
vt 0.223710 0.230597
vt 0.133032 0.359265
vt 0.675751 0.510523
vt 0.581137 0.359265
vt 0.696632 0.208007
vt 0.791848 0.230597
vt 0.752297 0.359265
vt 0.483287 0.510523
vt 0.393304 0.359265
vt 0.483287 0.208007
vt 0.636376 0.230597
vt 0.573270 0.359265
vt 0.752295 0.667284
vt 0.704989 0.811137
vt 0.839154 0.729634
vt 0.581136 0.722231
vt 0.409978 0.777178
vt 0.376801 0.878063
vt 0.533830 0.866084
vt 0.256887 0.777179
vt 0.304194 0.633326
vt 0.232899 0.489474
vt 0.091048 0.489474
vt 0.151103 0.633327
vt 0.151103 0.345622
vt 0.304194 0.345623
vt 0.409978 0.201771
vt 0.376801 0.100885
vt 0.256887 0.201770
vt 0.573270 0.114526
vt 1.000000 0.489474
vt 0.876147 0.400570
vt 0.876147 0.578379
vt 0.752295 0.311665
vt 0.752295 0.489474
vt 0.533830 0.112865
vt 0.581136 0.256718
vt 0.839154 0.249315
vt 0.704989 0.167812
vt 0.791848 0.105462
vt 0.696632 0.047711
vt 0.905274 0.186965
vt 0.376801 0.137116
vt 0.533830 0.114526
vt 0.726359 0.137116
vt 0.223710 0.100885
vt 0.131212 0.201770
vt 0.343625 0.000000
vt 0.483287 0.137118
vt 0.337690 0.114527
vt 0.192093 0.208007
vt 0.628884 0.114527
vt 0.103795 0.777179
vt 0.223710 0.878064
vt 0.343625 0.978949
vt 0.533830 0.114526
vt 0.376801 0.137116
vt 0.657683 0.954990
vt 0.791848 0.873487
vt 0.886462 0.381855
vt 0.793617 0.510523
vt 0.905274 0.245342
vt 0.756234 0.639191
vt 0.102108 0.359265
vt 0.060293 0.510523
vt 0.094616 0.639191
vt 0.089985 0.790448
vt 0.217333 0.790449
vt 0.116239 0.767858
vt 0.785471 0.790448
vt 0.483287 0.981039
vt 0.789203 0.345622
vt 0.207960 0.926978
vt 0.504591 0.489474
vt 0.475351 0.112865
vt 0.632380 0.100885
vt 0.351498 0.023959
vt 0.133034 0.400570
vt 0.170027 0.249315
vt 0.573270 0.906519
vt 0.304192 0.811137
vt 0.170027 0.729634
vt 0.217333 0.873487
vt 0.871956 0.790449
vt 0.475351 0.906519
vt 0.752294 0.777179
vt 0.632380 0.878063
vt 0.785471 0.878064
vt 0.628884 0.924629
vt 0.599203 1.000000
vt 0.217333 0.105462
vt 0.785471 0.100885
vt 0.886462 0.381855
vt 0.791848 0.230597
vt 0.133032 0.359265
vt 0.103795 0.208007
vt 0.393304 0.114526
vn 0.1273 -0.9875 -0.0925
vn 0.2873 -0.9573 0.0322
vn -0.0457 -0.9808 0.1896
vn 0.8567 -0.2964 0.4220
vn 0.6853 -0.6239 0.3756
vn 0.9386 -0.2728 0.2112
vn -0.2371 -0.9706 -0.0405
vn 0.0485 -0.9579 -0.2831
vn 0.2694 -0.9453 -0.1840
vn 0.9733 0.0800 0.2152
vn -0.3348 -0.4328 0.8370
vn 0.0305 -0.5088 0.8603
vn -0.1673 -0.2026 0.9648
vn -0.9742 -0.2245 0.0246
vn -0.9114 -0.3308 0.2448
vn -0.9914 -0.0106 0.1301
vn -0.3361 -0.4356 -0.8350
vn -0.5936 -0.4771 -0.6481
vn -0.5550 -0.1768 -0.8128
vn 0.8641 -0.2884 -0.4123
vn 0.6354 -0.4556 -0.6234
vn 0.8366 -0.0892 -0.5404
vn 0.8441 -0.0750 0.5308
vn -0.5779 -0.1666 0.7989
vn -0.9982 -0.0067 -0.0595
vn -0.1676 -0.1957 -0.9662
vn 0.9704 0.0215 -0.2405
vn 0.3820 0.4063 0.8300
vn 0.7592 0.3884 0.5222
vn 0.3304 0.6897 0.6442
vn -0.8773 0.3278 0.3505
vn -0.6796 0.4399 0.5870
vn -0.7514 0.5579 0.3524
vn -0.8090 0.3847 -0.4443
vn -0.9315 0.3467 -0.1095
vn -0.6885 0.6177 -0.3800
vn 0.3575 0.4319 -0.8280
vn -0.0307 0.5047 -0.8627
vn 0.2883 0.6620 -0.6918
vn 0.9903 0.1249 0.0613
vn 0.9720 0.2344 -0.0187
vn 0.9758 0.2175 0.0220
vn 0.6612 0.7493 0.0362
vn 0.3945 0.9050 -0.1588
vn 0.1548 0.9867 0.0493
vn 0.8566 0.4851 -0.1757
vn 0.9017 0.3523 -0.2505
vn 0.7129 0.4123 -0.5672
vn 0.6408 0.6467 -0.4137
vn 0.1814 0.8918 -0.4144
vn -0.1252 0.9310 -0.3427
vn 0.0839 0.9933 -0.0793
vn -0.1116 0.7276 -0.6769
vn -0.3288 0.5182 -0.7895
vn -0.5796 0.4733 -0.6633
vn -0.4023 0.7150 -0.5718
vn -0.4487 0.8607 -0.2404
vn -0.4908 0.8708 0.0300
vn -0.1180 0.9914 -0.0570
vn -0.7702 0.6339 -0.0700
vn -0.9539 0.2919 0.0687
vn -0.9393 0.2909 0.1817
vn -0.7921 0.5976 0.1239
vn -0.4788 0.8425 0.2468
vn -0.1449 0.9512 0.2722
vn -0.1305 0.9844 0.1179
vn -0.4615 0.7333 0.4992
vn -0.3521 0.4913 0.7966
vn 0.0222 0.4670 0.8839
vn -0.1200 0.7889 0.6026
vn 0.1885 0.9409 0.2814
vn 0.3951 0.9036 0.1658
vn 0.1047 0.9893 0.1016
vn 0.6621 0.6720 0.3316
vn 0.9462 0.2676 0.1819
vn 0.9888 0.1338 0.0658
vn 0.8657 0.4667 0.1807
vn 0.9858 0.1541 -0.0659
vn 0.9638 0.2242 -0.1441
vn 0.9687 0.2331 0.0858
vn 0.9278 0.1130 -0.3555
vn 0.7516 0.0440 -0.6581
vn 0.6305 0.1783 -0.7554
vn 0.8723 0.1843 -0.4528
vn -0.0022 0.0085 -0.9999
vn -0.2144 0.2721 -0.9380
vn 0.1747 0.2202 -0.9597
vn -0.3909 0.0376 -0.9196
vn -0.6865 0.0069 -0.7271
vn -0.7680 0.1923 -0.6108
vn -0.5084 0.2537 -0.8228
vn -0.9960 0.0356 -0.0814
vn -0.9915 0.1234 0.0419
vn -0.9675 0.1324 -0.2155
vn -0.9955 0.0901 0.0297
vn -0.9825 0.0575 0.1770
vn -0.9559 0.1728 0.2374
vn -0.9827 0.1668 0.0803
vn -0.7444 0.0059 0.6677
vn -0.5568 0.2112 0.8033
vn -0.8367 0.1770 0.5183
vn -0.4136 0.0274 0.9100
vn -0.0047 0.0011 1.0000
vn 0.1861 0.2200 0.9575
vn -0.2008 0.2367 0.9506
vn 0.7530 0.0551 0.6558
vn 0.9195 0.1918 0.3431
vn 0.6327 0.2014 0.7477
vn 0.9463 0.1867 0.2639
vn 0.9631 0.2563 0.0822
vn 0.9725 0.2202 0.0758
vn 0.9771 0.1953 0.0835
vn 0.4163 -0.0184 -0.9090
vn 0.5547 -0.1995 -0.8078
vn 0.3229 -0.5276 -0.7856
vn 0.0025 -0.5158 -0.8567
vn 0.2016 -0.2371 -0.9503
vn -0.9084 -0.0136 -0.4179
vn -0.7801 -0.2041 -0.5914
vn -0.7719 -0.4631 -0.4355
vn -0.9106 -0.3639 -0.1956
vn -0.9513 -0.1299 -0.2794
vn -0.9195 0.0044 0.3930
vn -0.9436 -0.1090 0.3126
vn -0.7940 -0.4293 0.4303
vn -0.6226 -0.4629 0.6308
vn -0.8251 -0.1716 0.5382
vn 0.3937 -0.0199 0.9190
vn 0.2069 -0.2571 0.9439
vn 0.3468 -0.5165 0.7829
vn 0.6210 -0.4544 0.6386
vn 0.5388 -0.2197 0.8132
vn 0.9672 0.2456 0.0639
vn 0.9874 0.1355 0.0811
vn 0.9578 -0.2875 0.0001
vn 0.9340 -0.2810 -0.2203
vn 0.9930 0.1028 -0.0575
vn 0.3871 -0.8887 -0.2456
vn 0.3633 -0.7889 -0.4955
vn 0.6672 -0.6444 -0.3736
vn 0.1632 -0.9205 -0.3550
vn -0.1053 -0.8888 -0.4460
vn -0.2541 -0.7207 -0.6450
vn 0.0777 -0.8065 -0.5861
vn -0.4825 -0.7408 -0.4673
vn -0.3672 -0.8877 -0.2776
vn -0.5880 -0.8088 -0.0051
vn -0.7934 -0.6086 0.0097
vn -0.6852 -0.6916 -0.2283
vn -0.7040 -0.6687 0.2392
vn -0.4409 -0.8650 0.2397
vn -0.1917 -0.8565 0.4792
vn -0.2714 -0.6831 0.6780
vn -0.5445 -0.6978 0.4653
vn 0.6911 -0.7119 -0.1243
vn 0.7128 -0.6941 0.1006
vn 0.4857 -0.8449 0.2241
vn 0.4656 -0.8833 -0.0546
vn 0.0946 -0.7412 0.6645
vn 0.1882 -0.9016 0.3893
vn 0.4114 -0.7286 0.5475
vn 0.1101 0.9932 0.0378
usemtl None
s 1
f 1/1/1 74/2/2 43/3/3
f 2/4/4 44/5/5 46/6/6
f 1/1/1 43/3/3 48/7/7
f 1/1/1 48/7/7 50/8/8
f 1/1/1 50/8/8 77/9/9
f 2/4/4 46/6/6 53/10/10
f 3/11/11 45/12/12 55/13/13
f 4/14/14 49/15/15 57/16/16
f 5/17/17 51/18/18 59/19/19
f 6/20/20 52/21/21 61/22/22
f 2/4/4 53/10/10 86/23/23
f 3/11/11 55/13/13 88/24/24
f 4/14/14 57/16/16 90/25/25
f 5/17/17 59/19/19 92/26/26
f 6/20/20 61/22/22 84/27/27
f 7/28/28 63/29/29 68/30/30
f 8/31/31 64/32/32 70/33/33
f 9/34/34 65/35/35 71/36/36
f 10/37/37 66/38/38 72/39/39
f 11/40/40 67/41/41 99/42/42
f 39/43/43 103/44/44 69/45/45
f 39/43/43 104/46/46 103/44/44
f 37/47/47 97/48/48 105/49/49
f 42/50/50 106/51/51 102/52/52
f 42/50/50 107/53/53 106/51/51
f 36/54/54 96/55/55 108/56/56
f 41/57/57 109/58/58 101/59/59
f 41/57/57 110/60/60 109/58/58
f 35/61/61 95/62/62 111/63/63
f 40/64/64 112/65/65 100/66/66
f 40/64/64 113/67/67 112/65/65
f 34/68/68 94/69/69 114/70/70
f 38/71/71 115/72/72 98/73/73
f 38/71/71 116/74/74 115/72/72
f 33/75/75 93/76/76 117/77/77
f 24/78/78 118/79/79 54/80/80
f 24/78/78 119/81/81 118/79/79
f 31/82/82 91/83/83 120/84/84
f 32/85/85 121/86/86 62/87/87
f 32/85/85 122/88/88 121/86/86
f 29/89/89 89/90/90 123/91/91
f 30/92/92 124/93/93 60/94/94
f 30/92/92 125/95/95 124/93/93
f 27/96/96 87/97/97 126/98/98
f 28/99/99 127/100/100 58/101/101
f 28/99/99 128/102/102 127/100/100
f 25/103/103 85/104/104 129/105/105
f 26/106/106 130/107/107 56/108/108
f 26/106/106 131/109/109 130/107/107
f 23/110/110 83/111/111 132/112/112
f 31/113/82 133/114/113 91/115/83
f 31/113/82 134/116/114 133/114/113
f 22/117/115 82/118/116 135/119/117
f 29/120/89 136/121/118 89/122/90
f 29/120/89 137/123/119 136/121/118
f 21/124/120 81/125/121 138/126/122
f 27/96/96 139/127/123 87/97/97
f 27/96/96 140/128/124 139/127/123
f 19/129/125 79/130/126 141/131/127
f 25/103/103 142/132/128 85/104/104
f 25/103/103 143/133/129 142/132/128
f 15/134/130 75/135/131 144/136/132
f 23/110/110 145/137/133 83/111/111
f 23/110/110 146/138/134 145/137/133
f 16/139/135 76/140/136 147/141/137
f 17/142/138 148/143/139 47/144/140
f 17/142/138 149/145/141 148/143/139
f 20/146/142 80/147/143 150/148/144
f 20/146/142 151/149/145 80/147/143
f 20/146/142 152/150/146 151/149/145
f 18/151/147 78/152/148 153/153/149
f 18/151/147 154/154/150 78/152/148
f 18/151/147 155/155/151 154/154/150
f 13/156/152 73/157/153 156/158/154
f 16/139/135 157/159/155 76/140/136
f 16/160/135 158/161/156 157/162/155
f 14/163/157 74/2/2 159/164/158
f 13/156/152 160/165/159 73/157/153
f 13/156/152 161/166/160 160/165/159
f 14/163/157 44/167/5 162/168/161
f 162/168/161 75/169/131 15/170/130
f 162/168/161 44/167/5 75/169/131
f 44/167/5 2/171/4 75/169/131
f 160/165/159 162/168/161 15/170/130
f 160/165/159 161/166/160 162/168/161
f 161/166/160 14/163/157 162/168/161
f 73/172/153 45/12/12 3/11/11
f 73/172/153 160/173/159 45/12/12
f 160/173/159 15/134/130 45/12/12
f 159/164/158 77/9/9 17/142/138
f 159/164/158 74/2/2 77/9/9
f 74/2/2 1/1/1 77/9/9
f 157/162/155 159/164/158 17/142/138
f 157/162/155 158/161/156 159/164/158
f 158/161/156 14/163/157 159/164/158
f 76/140/136 47/174/140 6/20/20
f 76/140/136 157/159/155 47/174/140
f 157/162/155 17/142/138 47/144/140
f 156/158/154 79/175/126 19/176/125
f 156/158/154 73/157/153 79/175/126
f 73/157/153 3/177/11 79/175/126
f 154/154/150 156/158/154 19/176/125
f 154/154/150 155/155/151 156/158/154
f 155/155/151 13/156/152 156/158/154
f 78/178/148 49/15/15 4/14/14
f 78/178/148 154/179/150 49/15/15
f 154/179/150 19/180/125 49/15/15
f 153/181/149 81/125/121 21/124/120
f 153/181/149 78/178/148 81/125/121
f 78/178/148 4/14/14 81/125/121
f 151/149/145 153/153/149 21/182/120
f 151/149/145 152/150/146 153/153/149
f 152/150/146 18/151/147 153/153/149
f 80/147/143 51/183/18 5/184/17
f 80/147/143 151/149/145 51/183/18
f 151/149/145 21/182/120 51/183/18
f 150/185/144 82/118/116 22/117/115
f 150/185/144 80/186/143 82/118/116
f 80/186/143 5/17/17 82/118/116
f 148/143/139 150/148/144 22/187/115
f 148/143/139 149/145/141 150/148/144
f 149/145/141 20/146/142 150/148/144
f 47/174/140 52/21/21 6/20/20
f 47/144/140 148/143/139 52/188/21
f 148/143/139 22/187/115 52/188/21
f 147/141/137 84/27/27 24/78/78
f 147/141/137 76/140/136 84/27/27
f 76/140/136 6/20/20 84/27/27
f 145/137/133 147/141/137 24/78/78
f 145/137/133 146/138/134 147/141/137
f 146/138/134 16/139/135 147/141/137
f 83/111/111 54/80/80 11/40/40
f 83/111/111 145/137/133 54/80/80
f 145/137/133 24/78/78 54/80/80
f 144/136/132 86/189/23 26/190/106
f 144/136/132 75/135/131 86/189/23
f 75/135/131 2/191/4 86/189/23
f 142/132/128 144/136/132 26/190/106
f 142/132/128 143/133/129 144/136/132
f 143/133/129 15/134/130 144/136/132
f 85/104/104 56/192/108 7/28/28
f 85/104/104 142/132/128 56/192/108
f 142/132/128 26/190/106 56/192/108
f 141/131/127 88/24/24 28/99/99
f 141/131/127 79/130/126 88/24/24
f 79/130/126 3/11/11 88/24/24
f 139/127/123 141/193/127 28/194/99
f 139/127/123 140/128/124 141/193/127
f 140/128/124 19/180/125 141/193/127
f 87/97/97 58/195/101 8/31/31
f 87/97/97 139/127/123 58/195/101
f 139/127/123 28/194/99 58/195/101
f 138/126/122 90/25/25 30/92/92
f 138/126/122 81/125/121 90/25/25
f 81/125/121 4/14/14 90/25/25
f 136/121/118 138/126/122 30/92/92
f 136/121/118 137/123/119 138/126/122
f 137/123/119 21/124/120 138/126/122
f 89/122/90 60/94/94 9/34/34
f 89/122/90 136/121/118 60/94/94
f 136/121/118 30/92/92 60/94/94
f 135/119/117 92/26/26 32/85/85
f 135/119/117 82/118/116 92/26/26
f 82/118/116 5/17/17 92/26/26
f 133/114/113 135/119/117 32/85/85
f 133/114/113 134/116/114 135/119/117
f 134/116/114 22/117/115 135/119/117
f 91/115/83 62/87/87 10/37/37
f 91/115/83 133/114/113 62/87/87
f 133/114/113 32/85/85 62/87/87
f 132/112/112 93/76/76 33/75/75
f 132/112/112 83/111/111 93/76/76
f 83/111/111 11/40/40 93/76/76
f 130/107/107 132/112/112 33/75/75
f 130/107/107 131/109/109 132/112/112
f 131/109/109 23/110/110 132/112/112
f 56/192/108 63/29/29 7/28/28
f 56/108/108 130/107/107 63/196/29
f 130/107/107 33/75/75 63/196/29
f 129/105/105 94/69/69 34/68/68
f 129/105/105 85/104/104 94/69/69
f 85/104/104 7/28/28 94/69/69
f 127/100/100 129/105/105 34/68/68
f 127/100/100 128/102/102 129/105/105
f 128/102/102 25/103/103 129/105/105
f 58/195/101 64/32/32 8/31/31
f 58/101/101 127/100/100 64/197/32
f 127/100/100 34/68/68 64/197/32
f 126/98/98 95/62/62 35/61/61
f 126/98/98 87/97/97 95/62/62
f 87/97/97 8/31/31 95/62/62
f 124/93/93 126/98/98 35/61/61
f 124/93/93 125/95/95 126/98/98
f 125/95/95 27/96/96 126/98/98
f 60/94/94 65/35/35 9/34/34
f 60/94/94 124/93/93 65/35/35
f 124/93/93 35/61/61 65/35/35
f 123/91/91 96/55/55 36/54/54
f 123/91/91 89/90/90 96/55/55
f 89/90/90 9/198/34 96/55/55
f 121/86/86 123/91/91 36/54/54
f 121/86/86 122/88/88 123/91/91
f 122/88/88 29/89/89 123/91/91
f 62/87/87 66/38/38 10/37/37
f 62/87/87 121/86/86 66/38/38
f 121/86/86 36/54/54 66/38/38
f 120/84/84 97/48/48 37/47/47
f 120/84/84 91/83/83 97/48/48
f 91/115/83 10/37/37 97/199/48
f 118/79/79 120/84/84 37/47/47
f 118/79/79 119/81/81 120/84/84
f 119/81/81 31/82/82 120/84/84
f 54/80/80 67/41/41 11/40/40
f 54/80/80 118/79/79 67/41/41
f 118/79/79 37/47/47 67/41/41
f 117/77/77 99/42/42 39/200/43
f 117/77/77 93/76/76 99/42/42
f 93/76/76 11/40/40 99/42/42
f 115/72/72 117/201/77 39/43/43
f 115/72/72 116/74/74 117/201/77
f 116/202/74 33/75/75 117/77/77
f 98/73/73 69/45/45 12/203/162
f 98/73/73 115/72/72 69/45/45
f 115/72/72 39/43/43 69/45/45
f 114/204/70 68/205/30 38/71/71
f 114/70/70 94/69/69 68/30/30
f 94/69/69 7/28/28 68/30/30
f 112/65/65 114/204/70 38/71/71
f 112/65/65 113/67/67 114/204/70
f 113/67/67 34/206/68 114/204/70
f 100/66/66 98/73/73 12/203/162
f 100/66/66 112/65/65 98/73/73
f 112/65/65 38/71/71 98/73/73
f 111/207/63 70/208/33 40/64/64
f 111/63/63 95/62/62 70/33/33
f 95/62/62 8/31/31 70/33/33
f 109/58/58 111/207/63 40/64/64
f 109/58/58 110/60/60 111/207/63
f 110/209/60 35/61/61 111/63/63
f 101/59/59 100/66/66 12/203/162
f 101/59/59 109/58/58 100/66/66
f 109/58/58 40/64/64 100/66/66
f 108/210/56 71/211/36 41/57/57
f 108/210/56 96/212/55 71/211/36
f 96/213/55 9/34/34 71/36/36
f 106/51/51 108/210/56 41/57/57
f 106/51/51 107/53/53 108/210/56
f 107/214/53 36/54/54 108/56/56
f 102/52/52 101/59/59 12/203/162
f 102/52/52 106/51/51 101/59/59
f 106/51/51 41/57/57 101/59/59
f 105/215/49 72/216/39 42/50/50
f 105/215/49 97/217/48 72/216/39
f 97/199/48 10/37/37 72/39/39
f 103/44/44 105/215/49 42/50/50
f 103/44/44 104/46/46 105/215/49
f 104/218/46 37/47/47 105/49/49
f 69/45/45 102/52/52 12/203/162
f 69/45/45 103/44/44 102/52/52
f 103/44/44 42/50/50 102/52/52
f 99/42/42 104/218/46 39/200/43
f 99/42/42 67/41/41 104/218/46
f 67/41/41 37/47/47 104/218/46
f 72/39/39 107/214/53 42/219/50
f 72/39/39 66/38/38 107/214/53
f 66/38/38 36/54/54 107/214/53
f 71/211/36 110/60/60 41/57/57
f 71/36/36 65/35/35 110/209/60
f 65/35/35 35/61/61 110/209/60
f 70/208/33 113/67/67 40/64/64
f 70/208/33 64/220/32 113/67/67
f 64/220/32 34/206/68 113/67/67
f 68/205/30 116/74/74 38/71/71
f 68/205/30 63/221/29 116/74/74
f 63/196/29 33/75/75 116/202/74
f 84/27/27 119/81/81 24/78/78
f 84/27/27 61/22/22 119/81/81
f 61/22/22 31/82/82 119/81/81
f 92/26/26 122/88/88 32/85/85
f 92/26/26 59/19/19 122/88/88
f 59/19/19 29/89/89 122/88/88
f 90/25/25 125/95/95 30/92/92
f 90/25/25 57/16/16 125/95/95
f 57/16/16 27/96/96 125/95/95
f 88/24/24 128/102/102 28/99/99
f 88/24/24 55/13/13 128/102/102
f 55/13/13 25/103/103 128/102/102
f 86/23/23 131/109/109 26/106/106
f 86/23/23 53/10/10 131/109/109
f 53/10/10 23/110/110 131/109/109
f 61/222/22 134/116/114 31/113/82
f 61/222/22 52/223/21 134/116/114
f 52/223/21 22/117/115 134/116/114
f 59/19/19 137/224/119 29/89/89
f 59/19/19 51/18/18 137/224/119
f 51/18/18 21/225/120 137/224/119
f 57/16/16 140/128/124 27/96/96
f 57/16/16 49/15/15 140/128/124
f 49/15/15 19/180/125 140/128/124
f 55/13/13 143/133/129 25/103/103
f 55/13/13 45/12/12 143/133/129
f 45/12/12 15/134/130 143/133/129
f 53/10/10 146/138/134 23/110/110
f 53/10/10 46/6/6 146/138/134
f 46/6/6 16/139/135 146/138/134
f 77/9/9 149/145/141 17/142/138
f 77/9/9 50/8/8 149/145/141
f 50/8/8 20/146/142 149/145/141
f 50/8/8 152/150/146 20/146/142
f 50/8/8 48/7/7 152/150/146
f 48/7/7 18/151/147 152/150/146
f 48/7/7 155/155/151 18/151/147
f 48/7/7 43/3/3 155/155/151
f 43/3/3 13/156/152 155/155/151
f 46/6/6 158/226/156 16/139/135
f 46/6/6 44/5/5 158/226/156
f 44/167/5 14/163/157 158/161/156
f 43/3/3 161/166/160 13/156/152
f 43/3/3 74/2/2 161/166/160
f 74/2/2 14/163/157 161/166/160
